<svg width="436" height="46" viewBox="0 0 436 46" fill="none" xmlns="http://www.w3.org/2000/svg">
<path d="M124.839 19.44C124.248 15.0341 120.698 12.3096 114.657 12.3096C108.539 12.3096 104.507 15.1431 104.522 19.7514C104.507 23.3322 106.764 25.6519 111.435 26.586L115.576 27.4111C117.662 27.8315 118.612 28.5943 118.643 29.7931C118.612 31.2099 117.071 32.2218 114.751 32.2218C112.384 32.2218 110.812 31.2099 110.407 29.2638L103.884 29.6063C104.507 34.1835 108.399 37.0014 114.735 37.0014C120.932 37.0014 125.369 33.841 125.384 29.1237C125.369 25.6674 123.111 23.5968 118.472 22.6471L114.144 21.7753C111.917 21.2927 111.092 20.5298 111.108 19.3777C111.092 17.9454 112.711 17.0113 114.766 17.0113C117.071 17.0113 118.441 18.2724 118.768 19.8137L124.839 19.44Z" fill="#F8F8F8"/>
<path d="M129.56 45.5018H136.193V32.7044H136.395C137.314 34.6972 139.322 36.9235 143.183 36.9235C148.632 36.9235 152.882 32.611 152.882 24.6088C152.882 16.3886 148.445 12.3096 143.199 12.3096C139.197 12.3096 137.283 14.6916 136.395 16.6377H136.099V12.621H129.56V45.5018ZM136.053 24.5776C136.053 20.3119 137.859 17.5873 141.081 17.5873C144.366 17.5873 146.11 20.4364 146.11 24.5776C146.11 28.75 144.335 31.6458 141.081 31.6458C137.89 31.6458 136.053 28.8434 136.053 24.5776Z" fill="#F8F8F8"/>
<path d="M164.123 36.9858C167.657 36.9858 169.945 35.4445 171.113 33.2182H171.3V36.5343H177.59V20.4053C177.59 14.7072 172.763 12.3096 167.439 12.3096C161.71 12.3096 157.942 15.0497 157.023 19.4089L163.157 19.9071C163.609 18.3191 165.026 17.1514 167.408 17.1514C169.665 17.1514 170.957 18.2879 170.957 20.2496V20.343C170.957 21.8843 169.323 22.0867 165.166 22.4915C160.433 22.9274 156.183 24.5154 156.183 29.8554C156.183 34.5882 159.561 36.9858 164.123 36.9858ZM166.022 32.4086C163.983 32.4086 162.519 31.459 162.519 29.6374C162.519 27.7692 164.06 26.8507 166.396 26.5237C167.844 26.3213 170.21 25.9788 171.004 25.4495V27.9872C171.004 30.4937 168.933 32.4086 166.022 32.4086Z" fill="#F8F8F8"/>
<path d="M193.54 37.0014C199.907 37.0014 203.908 33.2649 204.22 27.7692H197.961C197.572 30.3225 195.89 31.7548 193.617 31.7548C190.519 31.7548 188.511 29.1548 188.511 24.5776C188.511 20.0628 190.535 17.4784 193.617 17.4784C196.046 17.4784 197.603 19.0819 197.961 21.4639H204.22C203.939 15.9371 199.751 12.3096 193.508 12.3096C186.253 12.3096 181.77 17.3382 181.77 24.6711C181.77 31.9416 186.176 37.0014 193.54 37.0014Z" fill="#F8F8F8"/>
<path d="M219.364 37.0014C225.28 37.0014 229.266 34.1212 230.2 29.6841L224.066 29.2794C223.396 31.1009 221.684 32.0506 219.473 32.0506C216.157 32.0506 214.055 29.8554 214.055 26.2902V26.2746H230.34V24.4531C230.34 16.3263 225.42 12.3096 219.099 12.3096C212.062 12.3096 207.501 17.3071 207.501 24.6866C207.501 32.2685 212 37.0014 219.364 37.0014ZM214.055 22.1645C214.195 19.44 216.266 17.2604 219.208 17.2604C222.088 17.2604 224.081 19.3155 224.097 22.1645H214.055Z" fill="#F8F8F8"/>
<path d="M247.387 12.621H242.888V6.89173H236.256V12.621H232.987V17.6029H236.256V30.0578C236.225 34.7439 239.416 37.0637 244.227 36.8613C245.94 36.799 247.154 36.4565 247.823 36.2385L246.78 31.3033C246.453 31.3655 245.753 31.5212 245.13 31.5212C243.807 31.5212 242.888 31.023 242.888 29.1859V17.6029H247.387V12.621Z" fill="#F8F8F8"/>
<path d="M251.708 36.5343H258.34V23.0052C258.34 20.0628 260.488 18.0388 263.415 18.0388C264.334 18.0388 265.595 18.1945 266.218 18.3969V12.512C265.626 12.3719 264.801 12.2785 264.131 12.2785C261.454 12.2785 259.258 13.8353 258.387 16.7933H258.138V12.621H251.708V36.5343Z" fill="#F8F8F8"/>
<path d="M275.781 36.9858C279.315 36.9858 281.603 35.4445 282.771 33.2182H282.958V36.5343H289.247V20.4053C289.247 14.7072 284.421 12.3096 279.097 12.3096C273.368 12.3096 269.6 15.0497 268.681 19.4089L274.815 19.9071C275.267 18.3191 276.684 17.1514 279.066 17.1514C281.323 17.1514 282.615 18.2879 282.615 20.2496V20.343C282.615 21.8843 280.981 22.0867 276.824 22.4915C272.091 22.9274 267.841 24.5154 267.841 29.8554C267.841 34.5882 271.219 36.9858 275.781 36.9858ZM277.68 32.4086C275.641 32.4086 274.177 31.459 274.177 29.6374C274.177 27.7692 275.718 26.8507 278.054 26.5237C279.502 26.3213 281.868 25.9788 282.662 25.4495V27.9872C282.662 30.4937 280.591 32.4086 277.68 32.4086Z" fill="#F8F8F8"/>
<path d="M315.831 12.621H308.809L303.859 29.7308H303.61L298.643 12.621H291.637L299.998 36.5343H307.471L315.831 12.621Z" fill="#F8F8F8"/>
<path d="M329.309 37.0014C335.225 37.0014 339.211 34.1212 340.145 29.6841L334.011 29.2794C333.342 31.1009 331.629 32.0506 329.418 32.0506C326.102 32.0506 324 29.8554 324 26.2902V26.2746H340.285V24.4531C340.285 16.3263 335.366 12.3096 329.045 12.3096C322.008 12.3096 317.446 17.3071 317.446 24.6866C317.446 32.2685 321.945 37.0014 329.309 37.0014ZM324 22.1645C324.141 19.44 326.211 17.2604 329.154 17.2604C332.034 17.2604 334.027 19.3155 334.042 22.1645H324Z" fill="#F8F8F8"/>
<path d="M351.245 4.64985H344.613V36.5343H351.245V4.64985Z" fill="#F8F8F8"/>
<path d="M356.558 36.5343H363.19V12.621H356.558V36.5343ZM359.89 9.53838C361.867 9.53838 363.486 8.02823 363.486 6.17557C363.486 4.33848 361.867 2.82832 359.89 2.82832C357.928 2.82832 356.309 4.33848 356.309 6.17557C356.309 8.02823 357.928 9.53838 359.89 9.53838Z" fill="#F8F8F8"/>
<path d="M375.135 22.7094C375.151 19.6268 376.988 17.8209 379.666 17.8209C382.328 17.8209 383.932 19.5646 383.916 22.4915V36.5343H390.548V21.3082C390.548 15.7347 387.279 12.3096 382.297 12.3096C378.747 12.3096 376.179 14.0533 375.104 16.8401H374.824V12.621H368.503V36.5343H375.135V22.7094Z" fill="#F8F8F8"/>
<path d="M406.549 46C413.384 46 418.241 42.8863 418.241 36.7678V12.621H411.656V16.6377H411.406C410.519 14.6916 408.573 12.3096 404.572 12.3096C399.325 12.3096 394.888 16.3886 394.888 24.5309C394.888 32.4865 399.201 36.1918 404.587 36.1918C408.402 36.1918 410.535 34.2769 411.406 32.2997H411.687V36.6744C411.687 39.9594 409.585 41.236 406.705 41.236C403.778 41.236 402.299 39.9594 401.754 38.5115L395.62 39.3367C396.414 43.1043 400.104 46 406.549 46ZM406.689 31.2099C403.435 31.2099 401.66 28.6255 401.66 24.4998C401.66 20.4364 403.404 17.5873 406.689 17.5873C409.912 17.5873 411.718 20.3118 411.718 24.4998C411.718 28.7189 409.881 31.2099 406.689 31.2099Z" fill="#F8F8F8"/>
<path d="M432.148 36.9391C434.14 36.9391 435.869 35.2732 435.884 33.2026C435.869 31.1631 434.14 29.4973 432.148 29.4973C430.093 29.4973 428.396 31.1631 428.411 33.2026C428.396 35.2732 430.093 36.9391 432.148 36.9391Z" fill="#FF57B2"/>
<path d="M18.0498 0L0 21.1335L18.0498 42.2633L22.3178 35.5084L10.1547 21.1299L22.3178 6.75132L18.0498 0ZM25.9487 41.7587H33.8701L46.4641 0.389291H38.539L25.9487 41.7587ZM55.0188 0L50.7508 6.75492L62.9139 21.1335L50.7508 35.512L55.0188 42.2669L73.0686 21.1371L55.0188 0Z" fill="#FF57B2"/>
</svg>
